<?xml version="1.0" encoding="UTF-8" standalone="no"?>
<!-- Created with Inkscape (http://www.inkscape.org/) -->

<svg
   width="345.86865"
   height="347.48816"
   viewBox="0 0 91.511079 91.939575"
   version="1.1"
   id="svg1"
   xml:space="preserve"
   inkscape:version="1.2.2 (b0a8486541, 2022-12-01)"
   sodipodi:docname="logo.svg"
   xmlns:inkscape="http://www.inkscape.org/namespaces/inkscape"
   xmlns:sodipodi="http://sodipodi.sourceforge.net/DTD/sodipodi-0.dtd"
   xmlns:xlink="http://www.w3.org/1999/xlink"
   xmlns="http://www.w3.org/2000/svg"
   xmlns:svg="http://www.w3.org/2000/svg"><sodipodi:namedview
     id="namedview1"
     pagecolor="#505050"
     bordercolor="#ffffff"
     borderopacity="1"
     inkscape:showpageshadow="0"
     inkscape:pageopacity="0"
     inkscape:pagecheckerboard="1"
     inkscape:deskcolor="#505050"
     inkscape:document-units="mm"
     inkscape:zoom="1.18"
     inkscape:cx="914.40678"
     inkscape:cy="648.72881"
     inkscape:window-width="3840"
     inkscape:window-height="2088"
     inkscape:window-x="0"
     inkscape:window-y="0"
     inkscape:window-maximized="1"
     inkscape:current-layer="g1081"
     showgrid="false" /><defs
     id="defs1"><rect
       x="61.722033"
       y="44.343985"
       width="207.93733"
       height="204.34187"
       id="rect1106" /><linearGradient
       id="linearGradient1048"
       inkscape:swatch="solid"><stop
         style="stop-color:#000000;stop-opacity:1;"
         offset="0"
         id="stop1046" /></linearGradient><linearGradient
       id="linearGradient5428"
       inkscape:swatch="solid"><stop
         style="stop-color:#ffffff;stop-opacity:1;"
         offset="0"
         id="stop5426" /></linearGradient><linearGradient
       inkscape:collect="always"
       id="linearGradient6100"><stop
         style="stop-color:#00337d;stop-opacity:1;"
         offset="0"
         id="stop6096" /><stop
         style="stop-color:#000000;stop-opacity:0.07648725;"
         offset="0.99211043"
         id="stop6098" /></linearGradient><linearGradient
       inkscape:collect="always"
       xlink:href="#linearGradient6100"
       id="linearGradient7748"
       x1="200.55244"
       y1="142.97224"
       x2="227.64642"
       y2="142.97224"
       gradientUnits="userSpaceOnUse"
       gradientTransform="matrix(1.6860733,0,0,1.6860733,-104.18444,-86.102295)" /><linearGradient
       inkscape:collect="always"
       xlink:href="#linearGradient6100"
       id="linearGradient1333"
       gradientUnits="userSpaceOnUse"
       gradientTransform="matrix(1.6860733,0,0,1.6860733,-104.18444,-86.102295)"
       x1="200.55244"
       y1="142.97224"
       x2="227.64642"
       y2="142.97224" /></defs><g
     id="g4"
     transform="matrix(0.53796571,0,0,0.53796571,-6.0257467,-10.214361)"
     inkscape:label="center logo container"
     style="display:inline;fill:#1a1a1a"><g
       style="fill:none;stroke:#000000;stroke-opacity:1;stroke-width:0.67876321;stroke-dasharray:none"
       id="g1081"
       transform="matrix(5.4771816,0,0,5.4771816,30.450661,29.192587)"><path
         d="m 7.9835098,10.330157 c 0,-1.5090949 0,-2.2636306 0.1781674,-2.5174739 0.1781627,-0.2538432 0.887628,-0.496695 2.3065628,-0.9824033 l 0.270333,-0.092534 c 0.739665,-0.2531873 1.109479,-0.3797809 1.492413,-0.3797809 0.382932,0 0.752746,0.1265937 1.49242,0.3797809 l 0.270328,0.092533 c 1.418941,0.4857083 2.12841,0.7285601 2.306568,0.9824033 0.178159,0.2538433 0.178159,1.0083791 0.178159,2.5174739 0,0.227901 0,0.475104 0,0.743167 0,2.660807 -2.000561,3.952087 -3.255737,4.500389 -0.340459,0.148708 -0.510688,0.223086 -0.991738,0.223086 -0.481051,0 -0.651281,-0.07437 -0.991758,-0.223086 -1.2551762,-0.548301 -3.2557182,-1.839581 -3.2557182,-4.500388 0,-0.268063 0,-0.515266 0,-0.743167 z"
         stroke="#1c274c"
         stroke-width="0.707912"
         id="path1201"
         style="display:inline;mix-blend-mode:exclusion;fill:#ff9300;fill-opacity:1;stroke:#000000;opacity:1"
         transform="matrix(2.9931569,0,0,2.9931569,-24.776311,-19.418331)" /><path
         d="M 9,6 C 9,6.39397 9.0776,6.78407 9.22836,7.14805 9.37913,7.51203 9.6001,7.84274 9.87868,8.12132 10.1573,8.3999 10.488,8.62087 10.852,8.77164 11.2159,8.9224 11.606,9 12,9 12.394,9 12.7841,8.9224 13.1481,8.77164 13.512,8.62087 13.8427,8.3999 14.1213,8.12132 14.3999,7.84274 14.6209,7.51203 14.7716,7.14805 14.9224,6.78407 15,6.39396 15,6 15,5.60603 14.9224,5.21593 14.7716,4.85195 14.6209,4.48797 14.3999,4.15725 14.1213,3.87868 13.8427,3.6001 13.512,3.37912 13.148,3.22836 12.7841,3.0776 12.394,3 12,3 11.606,3 11.2159,3.0776 10.8519,3.22836 10.488,3.37913 10.1573,3.6001 9.87868,3.87868 9.6001,4.15726 9.37912,4.48797 9.22836,4.85195 9.0776,5.21593 9,5.60604 9,6 Z"
         stroke="#33363f"
         stroke-width="2"
         id="path1063"
         style="stroke:#000000;stroke-opacity:1;stroke-width:0.67876321;stroke-dasharray:none" /><path
         d="m 4.43781,13.9015 c -0.34118,0.197 -0.64023,0.4592 -0.88006,0.7718 -0.23983,0.3125 -0.41575,0.6693 -0.51771,1.0498 -0.10197,0.3806 -0.12798,0.7775 -0.07656,1.1681 0.05142,0.3906 0.17927,0.7672 0.37626,1.1084 0.19698,0.3412 0.45923,0.6402 0.77179,0.88 0.31255,0.2399 0.66928,0.4158 1.04983,0.5178 0.38054,0.1019 0.77744,0.1279 1.16803,0.0765 0.3906,-0.0514 0.76724,-0.1793 1.10842,-0.3762 C 7.779,18.9007 8.07804,18.6384 8.31787,18.3259 8.5577,18.0133 8.73362,17.6566 8.83559,17.276 8.93756,16.8955 8.96357,16.4986 8.91215,16.108 8.86072,15.7174 8.73287,15.3408 8.53589,14.9996 8.33891,14.6584 8.07665,14.3594 7.7641,14.1195 7.45154,13.8797 7.09481,13.7038 6.71427,13.6018 6.33373,13.4998 5.93683,13.4738 5.54623,13.5252 5.15564,13.5767 4.779,13.7045 4.43781,13.9015 Z"
         stroke="#33363f"
         stroke-width="2"
         id="path1065"
         style="stroke:#000000;stroke-opacity:1;stroke-width:0.67876321;stroke-dasharray:none;fill:#ff9300;fill-opacity:1" /><path
         d="m 19.5622,13.9015 c 0.3412,0.197 0.6402,0.4592 0.88,0.7718 0.2399,0.3126 0.4158,0.6693 0.5178,1.0498 0.1019,0.3806 0.1279,0.7775 0.0765,1.1681 -0.0514,0.3906 -0.1793,0.7672 -0.3762,1.1084 -0.197,0.3412 -0.4593,0.6402 -0.7718,0.88 -0.3126,0.2399 -0.6693,0.4158 -1.0499,0.5178 -0.3805,0.1019 -0.7774,0.1279 -1.168,0.0765 -0.3906,-0.0514 -0.7672,-0.1793 -1.1084,-0.3762 -0.3412,-0.197 -0.6402,-0.4593 -0.8801,-0.7718 -0.2398,-0.3126 -0.4157,-0.6693 -0.5177,-1.0499 -0.102,-0.3805 -0.128,-0.7774 -0.0765,-1.168 0.0514,-0.3906 0.1792,-0.7672 0.3762,-1.1084 0.197,-0.3412 0.4593,-0.6402 0.7718,-0.8801 0.3126,-0.2398 0.6693,-0.4157 1.0498,-0.5177 0.3806,-0.102 0.7775,-0.128 1.1681,-0.0766 0.3906,0.0515 0.7672,0.1793 1.1084,0.3763 z"
         stroke="#33363f"
         stroke-width="2"
         id="path1067"
         style="stroke:#000000;stroke-opacity:1;stroke-width:0.67876321;stroke-dasharray:none" /><path
         fill-rule="evenodd"
         clip-rule="evenodd"
         d="M 9.06962,6.64319 C 9.02341,6.43253 8.99993,6.217 8.99993,6.0003 8.99993,5.60634 9.07753,5.21623 9.22829,4.85225 9.30001,4.67912 9.3876,4.51352 9.48973,4.35747 9.17327,4.44938 8.86149,4.55879 8.55584,4.68539 7.46391,5.13768 6.47176,5.80062 5.63603,6.63634 4.80031,7.47207 4.13737,8.46422 3.68508,9.55616 3.23279,10.6481 3,11.8184 3,13.0003 3,13.7255 3.08765,14.4464 3.25988,15.1475 3.34396,14.981 3.44359,14.8223 3.55768,14.6736 3.79752,14.361 4.09656,14.0988 4.43774,13.9018 4.62541,13.7935 4.82381,13.706 5.02936,13.6407 5.00983,13.4282 5,13.2145 5,13.0003 5,12.0811 5.18106,11.1708 5.53284,10.3215 5.88462,9.47224 6.40024,8.70057 7.05025,8.05056 7.63547,7.46533 8.31932,6.98905 9.06962,6.64319 Z m 5.86068,-6e-5 c 0.7503,0.34587 1.4342,0.82217 2.0194,1.40742 0.6501,0.65001 1.1657,1.42169 1.5175,2.27095 C 18.8189,11.1708 19,12.081 19,13.0003 c 0,0.2142 -0.0098,0.4279 -0.0294,0.6405 0.2055,0.0653 0.4039,0.1527 0.5915,0.261 0.3412,0.197 0.6402,0.4592 0.8801,0.7718 0.1141,0.1487 0.2138,0.3075 0.2979,0.474 C 20.9123,14.4465 21,13.7256 21,13.0003 21,11.8184 20.7672,10.6481 20.3149,9.55615 19.8626,8.46422 19.1997,7.47206 18.364,6.63634 17.5282,5.80061 16.5361,5.13768 15.4441,4.68538 15.1385,4.55876 14.8266,4.44935 14.5101,4.35742 c 0.1021,0.15606 0.1898,0.32168 0.2615,0.49483 0.1507,0.36398 0.2283,0.75408 0.2283,1.14805 0,0.21668 -0.0234,0.43219 -0.0696,0.64283 z m 3.3,12.85207 c -0.1864,0.0104 -0.3738,0.0035 -0.5598,-0.021 -0.3906,-0.0514 -0.7672,-0.1793 -1.1084,-0.3762 -0.1875,-0.1083 -0.3623,-0.2363 -0.5216,-0.3816 -0.4236,0.2995 -0.8802,0.5516 -1.3617,0.7511 -0.8493,0.3517 -1.7595,0.5328 -2.6788,0.5328 -0.9193,0 -1.8295,-0.1811 -2.67878,-0.5328 C 8.83965,19.268 8.38304,19.0158 7.95941,18.7164 7.80015,18.8616 7.62531,18.9897 7.43775,19.098 7.09656,19.2949 6.71992,19.4228 6.32932,19.4742 6.1434,19.4987 5.95604,19.5056 5.7697,19.4952 c 0.8071,0.7742 1.75186,1.3916 2.78615,1.82 1.09193,0.4523 2.26225,0.6851 3.44415,0.6851 1.1819,0 2.3522,-0.2328 3.4442,-0.6851 1.0342,-0.4284 1.979,-1.0458 2.7861,-1.82 z"
         fill="#33363f"
         id="path1069"
         style="stroke:#000000;stroke-opacity:1;stroke-width:0.67876321;stroke-dasharray:none;fill:#000000" /></g></g></svg>
